<svg width="950" height="204" viewBox="0 0 950 204" fill="none" xmlns="http://www.w3.org/2000/svg">
<path d="M0 4.69672H82.8772C115.66 4.69672 140.707 13.629 158.019 31.4937C175.331 49.1742 183.987 72.0114 183.987 100.006C183.987 128.368 175.331 151.85 158.019 170.451C140.891 188.868 115.844 198.077 82.8772 198.077H0V4.69672ZM54.1464 50.2792V151.942H82.8772C99.0843 151.942 110.963 146.969 118.514 137.024C126.065 126.895 129.841 114.371 129.841 99.453C129.841 85.0876 125.973 73.3007 118.238 64.0921C110.503 54.8835 98.716 50.2792 82.8772 50.2792H54.1464ZM267.551 198.077H213.128V4.69672H267.551V198.077ZM452.883 23.7585L425.81 58.2907C414.023 49.4504 398.921 45.0303 380.503 45.0303C373.137 45.0303 366.875 46.2274 361.718 48.6217C356.745 51.0159 354.259 54.6072 354.259 59.3957C354.259 65.4734 356.745 69.6172 361.718 71.8273C366.691 73.8532 374.886 75.4186 386.305 76.5237C396.803 77.6287 406.38 79.5625 415.036 82.3251C423.692 84.9035 431.887 88.5869 439.622 93.3753C447.542 98.1638 453.712 104.61 458.132 112.713C462.552 120.633 464.762 129.933 464.762 140.615C464.762 154.612 460.618 166.491 452.33 176.253C444.043 186.014 433.637 193.012 421.113 197.248C408.774 201.3 395.053 203.418 379.951 203.602C361.165 203.786 345.235 201.576 332.158 196.972C319.082 192.183 306.19 183.067 293.482 169.622L323.594 135.09C338.512 149.64 357.39 156.915 380.227 156.915C389.436 156.915 396.803 155.441 402.328 152.494C407.853 149.364 410.615 145.128 410.615 139.787C410.615 130.026 399.841 124.132 378.293 122.106C366.506 121.001 356.377 119.436 347.905 117.41C339.433 115.2 331.238 111.885 323.318 107.464C315.583 103.044 309.689 96.8746 305.638 88.9552C301.586 80.8517 299.56 70.9985 299.56 59.3957C299.56 40.2418 307.387 25.6923 323.042 15.747C338.881 5.80175 358.034 0.829102 380.503 0.829102C409.234 0.829102 433.361 8.47223 452.883 23.7585ZM652.347 198.077V82.8776L602.897 141.444H593.228L544.883 83.1538V198.077H490.734V4.69672H547.921L598.753 70.1697L649.584 4.69672H706.493V198.077H652.347Z" fill="#25384A"/>
<path d="M775.746 163.149C774.893 159.342 775.586 155.433 777.698 152.139C779.823 148.838 783.111 146.559 786.96 145.712L803.314 142.113C793.518 132.454 787.958 118.456 787.958 101.375C787.958 67.7665 809.397 46.0045 842.531 46.0045C851.257 46.0045 859.145 47.5519 866.071 50.3906L895.342 43.9503C895.713 43.869 895.924 43.6447 896.035 43.4687C896.151 43.2906 896.266 43.0046 896.184 42.6351L888.342 7.74563C874.847 2.7187 859.496 0 842.531 0C777.1 0 735.061 39.6682 735.061 101.375C735.061 140.598 752.095 170.861 781.276 187.748L775.746 163.149Z" fill="#25384A"/>
<path d="M903.989 15.1123L909.516 39.7036C910.372 43.5174 909.677 47.43 907.558 50.7225C905.444 54.0127 902.157 56.2956 898.305 57.1424L881.877 60.7571C891.594 70.4119 897.1 84.3683 897.1 101.375C897.1 134.984 875.661 156.746 842.53 156.746C833.898 156.746 826.084 155.238 819.211 152.459L789.923 158.905C789.55 158.986 789.336 159.212 789.223 159.388C789.114 159.558 788.996 159.848 789.079 160.218L796.918 195.088C810.364 200.066 825.65 202.752 842.53 202.752C907.958 202.752 950 163.083 950 101.376C950 62.2426 933.048 32.0219 903.989 15.1123Z" fill="#77C2A1"/>
</svg>
